<?xml version="1.0" encoding="UTF-8"?>
<svg width="25px" height="24px" viewBox="0 0 25 24" version="1.1" xmlns="http://www.w3.org/2000/svg" xmlns:xlink="http://www.w3.org/1999/xlink">
    <!-- Generator: Sketch 55.2 (78181) - https://sketchapp.com -->
    <title>Фигура_507</title>
    <desc>Created with Sketch.</desc>
    <g id="Page-1" stroke="none" stroke-width="1" fill="none" fill-rule="evenodd">
        <g id="s_fb" fill="#FFFFFF" fill-rule="nonzero">
            <path d="M24.6196233,4.28142857 C24.5419282,2.18112697 22.7806003,0.496353932 20.5872145,0.424285714 L4.47100593,0.424285714 C2.27917961,0.498138191 0.52019525,2.18253897 0.44307266,4.28142857 L0.44307266,19.71 C0.518682412,21.8095194 2.27852188,23.4947391 4.47100593,23.5671429 L12.531348,23.5671429 L12.531348,14.8242857 L9.57753023,14.8242857 L9.57753023,10.9671429 L12.531348,10.9671429 L12.531348,9.46714286 C12.531348,6.87428571 14.5632165,4.53857143 17.0650106,4.53857143 L20.3186856,4.53857143 L20.3186856,8.39571429 L17.0650106,8.39571429 C16.5658369,8.49791056 16.230207,8.94749718 16.2907524,9.43285714 L16.2907524,10.9671429 L20.3186856,10.9671429 L20.3186856,14.8242857 L16.2907524,14.8242857 L16.2907524,23.5671429 L20.5872145,23.5671429 C22.7812577,23.4965255 24.5434426,21.8109328 24.6196233,19.71 L24.6196233,4.28142857 L24.6196233,4.28142857 Z" id="Фигура_507"></path>
        </g>
    </g>
</svg>