<?xml version="1.0" encoding="UTF-8"?>
<svg width="28px" height="22px" viewBox="0 0 28 22" version="1.1" xmlns="http://www.w3.org/2000/svg" xmlns:xlink="http://www.w3.org/1999/xlink">
    <!-- Generator: Sketch 55.2 (78181) - https://sketchapp.com -->
    <title>s_tw</title>
    <desc>Created with Sketch.</desc>
    <g id="Page-1" stroke="none" stroke-width="1" fill="none" fill-rule="evenodd">
        <g id="s_tw" fill="#FFFFFF" fill-rule="nonzero">
            <path d="M27.4058355,2.94837051 C26.395675,3.38561472 25.3223422,3.67277522 24.2225423,3.80003186 C25.3862075,3.11686459 26.252251,2.05036292 26.6595536,0.798939463 C25.5741259,1.427915 24.3848538,1.87369081 23.143174,2.1169868 C22.1046874,1.02562208 20.6378823,0.403304408 19.0997592,0.401497497 C17.3964643,0.433437228 15.7992296,1.20343935 14.7532523,2.49688127 C13.707275,3.79032319 13.3244016,5.46889689 13.7113503,7.06473373 C9.23713038,6.8383714 5.07986772,4.77325595 2.2978739,1.39510241 C0.830015157,3.87255902 1.57301053,7.0181524 4.00968455,8.642335 C3.1289473,8.61423685 2.26830385,8.38188789 1.50099653,7.96506145 L1.50099653,8.03400546 C1.48462226,10.5963552 3.3401211,12.8179859 5.94495817,13.3548612 C5.46966535,13.4805581 4.97905411,13.5446609 4.48612446,13.5454711 C4.13649199,13.5462274 3.78764364,13.5136236 3.44470271,13.4481384 C4.14558085,15.6429378 6.22754644,17.160396 8.61386493,17.215726 C6.6650572,18.7234743 4.23809373,19.5436027 1.73710835,19.5395448 C1.29611388,19.5397181 0.855478499,19.5153442 0.417411957,19.4665453 C2.93865477,21.0582285 5.88900669,21.9054997 8.90478841,21.9039212 C19.0871104,21.9039212 24.6568194,13.6346928 24.6568194,6.46045972 C24.6568194,6.22523896 24.6526031,5.99001821 24.6399543,5.75479745 C25.7286652,4.98560655 26.6654048,4.03513506 27.4058355,2.94837051 L27.4058355,2.94837051 Z" id="Фигура_508"></path>
        </g>
    </g>
</svg>