<?xml version="1.0" encoding="UTF-8"?>
<svg width="33px" height="20px" viewBox="0 0 33 20" version="1.1" xmlns="http://www.w3.org/2000/svg" xmlns:xlink="http://www.w3.org/1999/xlink">
    <!-- Generator: Sketch 55.2 (78181) - https://sketchapp.com -->
    <title>s_vk</title>
    <desc>Created with Sketch.</desc>
    <g id="Page-1" stroke="none" stroke-width="1" fill="none" fill-rule="evenodd">
        <g id="s_vk" fill="#FFFFFF" fill-rule="nonzero">
            <path d="M31.4959738,1.71549858 C31.7136979,0.978404558 31.4959738,0.438746439 30.442189,0.438746439 L26.9629572,0.438746439 C26.2988439,0.392985776 25.6839907,0.792900141 25.4519517,1.42153846 C25.4519517,1.42153846 23.6840317,5.73002849 21.1758497,8.52923077 C20.3659159,9.33652422 19.9957848,9.59538462 19.5559821,9.59538462 C19.3339034,9.59538462 19.0160262,9.33652422 19.0160262,8.60381766 L19.0160262,1.71549858 C19.0160262,0.833618234 18.7591117,0.438746439 18.0232041,0.438746439 L12.5539738,0.438746439 C12.3316051,0.42630806 12.1134577,0.503496947 11.9476339,0.653292647 C11.78181,0.803088347 11.6819286,1.01318842 11.6700138,1.23726496 C11.6700138,2.07527066 12.9241048,2.26831909 13.0503848,4.62438746 L13.0503848,9.7445584 C13.0503848,10.8677493 12.8500786,11.0695726 12.4059214,11.0695726 C11.230211,11.0695726 8.3606069,6.74353276 6.65800414,1.79008547 C6.32706345,0.829230769 5.99176828,0.438746439 5.10345379,0.438746439 L1.62422207,0.438746439 C0.6314,0.438746439 0.431093793,0.908205128 0.431093793,1.42153846 C0.431093793,2.34290598 1.61115862,6.91025641 5.92209655,12.9474074 C8.79605517,17.0716239 12.8457241,19.3048433 16.5296166,19.3048433 C18.7416938,19.3048433 19.0160262,18.8090598 19.0160262,17.9535043 L19.0160262,14.8384046 C19.0160262,13.8424501 19.2250414,13.6450142 19.9261131,13.6450142 C20.4399421,13.6450142 21.3239021,13.9038746 23.3879269,15.891396 C25.7480566,18.2474644 26.1356055,19.3048433 27.4593683,19.3048433 L30.9386,19.3048433 C31.9314221,19.3048433 32.4278331,18.8090598 32.1447917,17.8306553 C31.831269,16.8522507 30.7034579,15.4350997 29.2098703,13.7547009 C28.3999366,12.7982336 27.1850359,11.7671795 26.8149048,11.2538462 C26.2967214,10.591339 26.4447738,10.2973789 26.8149048,9.70507123 C26.8149048,9.70507123 31.0518166,3.74250712 31.4959738,1.71549858 Z" id="Фигура_506"></path>
        </g>
    </g>
</svg>